<?xml version="1.0" encoding="UTF-8"?>
<svg version="1.1" xmlns="http://www.w3.org/2000/svg" width="18" height="12">
<path d="M0 0 C1.134375 0.020625 2.26875 0.04125 3.4375 0.0625 C3.4375 2.7025 3.4375 5.3425 3.4375 8.0625 C2.4475 8.0625 1.4575 8.0625 0.4375 8.0625 C-0.5525 8.7225 -1.5425 9.3825 -2.5625 10.0625 C-7.77036517 10.64115169 -7.77036517 10.64115169 -10.5625 10.0625 C-13.0625 7.5625 -13.0625 7.5625 -14.5625 5.0625 C-13.2425 4.0725 -11.9225 3.0825 -10.5625 2.0625 C-9.9025 2.7225 -9.2425 3.3825 -8.5625 4.0625 C-5.97895782 4.22937448 -5.97895782 4.22937448 -3.5625 4.0625 C-3.8925 3.0725 -4.2225 2.0825 -4.5625 1.0625 C-3.5625 0.0625 -3.5625 0.0625 0 0 Z " fill="#E1D3B8" transform="translate(14.5625,0.9375)"/>
<path d="M0 0 C1.65 0 3.3 0 5 0 C5 1.98 5 3.96 5 6 C3.0625 5.25 3.0625 5.25 1 4 C0.25 1.875 0.25 1.875 0 0 Z " fill="#FAF2DF" transform="translate(12,2)"/>
<path d="M0 0 C0 0.99 0 1.98 0 3 C-2.92879371 2.37240135 -5.36095629 1.41377341 -8 0 C-4.71303767 -0.79953138 -3.28976808 -1.09658936 0 0 Z " fill="#ECE0C5" transform="translate(14,6)"/>
</svg>
