<?xml version="1.0" encoding="UTF-8"?>
<svg version="1.1" xmlns="http://www.w3.org/2000/svg" width="18" height="12">
<path d="M0 0 C1.134375 0.020625 2.26875 0.04125 3.4375 0.0625 C3.4375 3.0325 3.4375 6.0025 3.4375 9.0625 C2.4475 9.0625 1.4575 9.0625 0.4375 9.0625 C-0.5525 9.7225 -1.5425 10.3825 -2.5625 11.0625 C-9.71143617 11.74335106 -9.71143617 11.74335106 -13.0625 9.0625 C-13.5575 8.4025 -14.0525 7.7425 -14.5625 7.0625 C-13.9025 5.7425 -13.2425 4.4225 -12.5625 3.0625 C-9.18226483 3.0625 -6.72781063 3.93705622 -3.5625 5.0625 C-3.8409375 4.1034375 -3.8409375 4.1034375 -4.125 3.125 C-4.269375 2.444375 -4.41375 1.76375 -4.5625 1.0625 C-3.5625 0.0625 -3.5625 0.0625 0 0 Z " fill="#D3603A" transform="translate(14.5625,-0.0625)"/>
<path d="M0 0 C2.31 0 4.62 0 7 0 C7 1.98 7 3.96 7 6 C2.59085217 7.10228696 -1.48382401 7.07654536 -6 7 C-6.33 6.01 -6.66 5.02 -7 4 C-4.36 4 -1.72 4 1 4 C0.67 2.68 0.34 1.36 0 0 Z " fill="#E27C53" transform="translate(10,1)"/>
<path d="M0 0 C2.31 0 4.62 0 7 0 C7 2.97 7 5.94 7 9 C6.01 9 5.02 9 4 9 C3.01 9.33 2.02 9.66 1 10 C1.33 8.68 1.66 7.36 2 6 C2.99 6 3.98 6 5 6 C5.33 4.35 5.66 2.7 6 1 C4.02 1 2.04 1 0 1 C0 0.67 0 0.34 0 0 Z " fill="#D4572F" transform="translate(11,0)"/>
<path d="M0 0 C6.0546875 -0.1953125 6.0546875 -0.1953125 8 0 C8.66 0.66 9.32 1.32 10 2 C9 3 9 3 7.15234375 3.09765625 C5.1015625 3.06510417 3.05078125 3.03255208 1 3 C0.67 2.01 0.34 1.02 0 0 Z " fill="#E77240" transform="translate(3,5)"/>
</svg>
