<?xml version="1.0" encoding="UTF-8"?>
<svg version="1.1" xmlns="http://www.w3.org/2000/svg" width="18" height="12">
<path d="M0 0 C2.31 0 4.62 0 7 0 C7 1.33333333 7 2.66666667 7 4 C10.71599191 4.20086443 11.77208445 4.1519437 15 2 C15.99 3.32 16.98 4.64 18 6 C16.27407887 8.30122818 14.97044702 9.83207557 12.05859375 10.3359375 C8.21409252 10.40673863 6.23724437 10.15816291 3 8 C2.01 8 1.02 8 0 8 C0 5.36 0 2.72 0 0 Z " fill="#EFE4CD" transform="translate(0,1)"/>
<path d="M0 0 C1.32 1.32 2.64 2.64 4 4 C2.27593985 6.29874686 0.9363344 7.80406685 -1.94140625 8.40625 C-4.0625 8.5 -4.0625 8.5 -8 8 C-10 6 -10 6 -11 4 C-8.36 4.33 -5.72 4.66 -3 5 C-4.32 4.34 -5.64 3.68 -7 3 C-5.5459375 2.5359375 -5.5459375 2.5359375 -4.0625 2.0625 C-1.15934208 1.30476658 -1.15934208 1.30476658 0 0 Z " fill="#DFD0B4" transform="translate(14,3)"/>
</svg>
