<?xml version="1.0" encoding="UTF-8"?>
<svg version="1.1" xmlns="http://www.w3.org/2000/svg" width="18" height="12">
<path d="M0 0 C2.31 0 4.62 0 7 0 C7.33 0.99 7.66 1.98 8 3 C7.67 3.66 7.34 4.32 7 5 C7.928125 4.67 8.85625 4.34 9.8125 4 C13 3 13 3 16 3 C16.66 4.32 17.32 5.64 18 7 C16.27407887 9.30122818 14.97044702 10.83207557 12.05859375 11.3359375 C8.21409252 11.40673863 6.23724437 11.15816291 3 9 C2.01 9 1.02 9 0 9 C0 6.03 0 3.06 0 0 Z " fill="#D25A33" transform="translate(0,0)"/>
<path d="M0 0 C2.31 0 4.62 0 7 0 C6.67 1.32 6.34 2.64 6 4 C6.94875 3.95875 7.8975 3.9175 8.875 3.875 C12 4 12 4 14 6 C13 7 13 7 9.25 7.125 C6.05411684 7.09051205 3.11308275 6.77827069 0 6 C0 4.02 0 2.04 0 0 Z " fill="#E87342" transform="translate(1,1)"/>
<path d="M0 0 C2.31 0 4.62 0 7 0 C6.67 1.65 6.34 3.3 6 5 C4.35 4.01 2.7 3.02 1 2 C0.67 3.32 0.34 4.64 0 6 C0 4.02 0 2.04 0 0 Z " fill="#DF7F58" transform="translate(1,1)"/>
<path d="M0 0 C1.32 0.99 2.64 1.98 4 3 C2.25 6.875 2.25 6.875 0 8 C-0.68707555 5.50935112 -1 3.62113708 -1 1 C-0.67 0.67 -0.34 0.34 0 0 Z " fill="#D8633C" transform="translate(14,2)"/>
</svg>
